<svg xmlns="http://www.w3.org/2000/svg" viewBox="0 0 143 55"><defs><style>.cls-1,.cls-3{fill:#01e0ff;}.cls-2{fill:#fff;}.cls-3,.cls-4{stroke:#fff;stroke-width:3px;}.cls-3{stroke-linecap:round;}.cls-4{fill:none;}</style></defs><title>Ресурс 1</title><g id="Слой_2" data-name="Слой 2"><g id="Слой_1-2" data-name="Слой 1"><rect class="cls-1" width="143" height="55" rx="5" ry="5"/><path class="cls-2" d="M59.76,27.94a5.48,5.48,0,0,1-1.22,3.77,4.25,4.25,0,0,1-3.37,1.38,4.33,4.33,0,0,1-3.41-1.35,5.54,5.54,0,0,1-1.2-3.81,5.46,5.46,0,0,1,1.2-3.78,4.36,4.36,0,0,1,3.42-1.35,4.28,4.28,0,0,1,3.37,1.37A5.52,5.52,0,0,1,59.76,27.94Zm-8,0A4.79,4.79,0,0,0,52.65,31a3.09,3.09,0,0,0,2.52,1.05A3,3,0,0,0,57.68,31a4.81,4.81,0,0,0,.85-3.08,4.76,4.76,0,0,0-.85-3.05,3,3,0,0,0-2.5-1.05,3.11,3.11,0,0,0-2.53,1.05A4.74,4.74,0,0,0,51.79,27.94Zm15.08-1.51H64.44V33H63.3V26.43H60.9v-1h6ZM69.49,33H68.36V25.46h6.28V33H73.5V26.44h-4Zm11.05.14a3.24,3.24,0,0,1-1.34-.27,2.53,2.53,0,0,1-1-.83H78.1a9.16,9.16,0,0,1,.09,1.24v3.08H77.05V25.46H78l.16,1h.06a2.61,2.61,0,0,1,1-.88,3,3,0,0,1,1.34-.28,2.74,2.74,0,0,1,2.29,1,4.43,4.43,0,0,1,.82,2.86,4.46,4.46,0,0,1-.83,2.87A2.77,2.77,0,0,1,80.54,33.09Zm-.17-6.8a2,2,0,0,0-1.66.63,3.25,3.25,0,0,0-.52,2v.25a3.76,3.76,0,0,0,.52,2.26,2,2,0,0,0,1.69.68,1.74,1.74,0,0,0,1.52-.79,3.67,3.67,0,0,0,.55-2.16A3.56,3.56,0,0,0,81.92,27,1.81,1.81,0,0,0,80.37,26.29ZM90.24,33,90,31.89H90a3.18,3.18,0,0,1-1.12,1,3.31,3.31,0,0,1-1.38.25,2.47,2.47,0,0,1-1.75-.58,2.08,2.08,0,0,1-.63-1.63c0-1.51,1.21-2.31,3.63-2.38l1.27,0V28a1.84,1.84,0,0,0-.39-1.3,1.51,1.51,0,0,0-1.21-.43,4.81,4.81,0,0,0-2.11.58L85.92,26a5.16,5.16,0,0,1,1.21-.47,5,5,0,0,1,1.32-.17,2.84,2.84,0,0,1,2,.59,2.49,2.49,0,0,1,.64,1.91V33Zm-2.56-.8a2.27,2.27,0,0,0,1.66-.58A2.13,2.13,0,0,0,90,29.94v-.67l-1.13,0a4.21,4.21,0,0,0-2,.43,1.24,1.24,0,0,0-.59,1.15,1.19,1.19,0,0,0,.36.94A1.61,1.61,0,0,0,87.68,32.15Zm11.83-4.81a1.38,1.38,0,0,1-.43,1.11,2.3,2.3,0,0,1-1.17.51V29a2.39,2.39,0,0,1,1.39.56,1.58,1.58,0,0,1,.45,1.19A1.86,1.86,0,0,1,99,32.38a3.7,3.7,0,0,1-2.24.57h-3.3V25.46h3.29C98.58,25.46,99.51,26.09,99.51,27.34Zm-.9,3.36a1,1,0,0,0-.46-.89,3.19,3.19,0,0,0-1.53-.28H94.56V32h2.09C98,32,98.61,31.57,98.61,30.7Zm-.21-3.25a.79.79,0,0,0-.42-.77,2.67,2.67,0,0,0-1.28-.24H94.56v2.12h1.93A3.1,3.1,0,0,0,98,28.3.92.92,0,0,0,98.4,27.45Zm4.07-2v4.75l0,1.24,0,.39,4-6.38h1.42V33h-1.06V28.37l0-.9,0-.89-4,6.37H101.4V25.46Zm12.86,1h-2.44V33h-1.13V26.43h-2.41v-1h6Zm2.61,2.13h2.31c1.92,0,2.88.7,2.88,2.11a2,2,0,0,1-.76,1.69,3.39,3.39,0,0,1-2.18.59h-3.38V25.46h1.13Zm0,1V32h2.19a2.52,2.52,0,0,0,1.38-.31,1.06,1.06,0,0,0,.48-1,1,1,0,0,0-.44-.91,2.68,2.68,0,0,0-1.45-.3Z"/><rect class="cls-3" x="16.21" y="19.45" width="23.21" height="17" rx="3.5" ry="3.5"/><path class="cls-4" d="M16.89,20l10.92,8.34L38.52,20"/></g></g></svg>